# xmcd
#
# Track frame offsets:
#	150
#	17995
#	33783
#	49486
#	70516
#	85771
#	102015
#	121022
#	137511
#	158275
#	172911
#	191994
#	210605
#	231604
#	247217
#	260840
#	273573
#	285603
#	303205
#
# Disc length: 4459 seconds
#
# Revision: 3
# Processed by: cddbd v1.5.1PL2 Copyright (c) Steve Scherf et al.
# Submitted via: EasyCDDAExtractor 6.5.0.1
#
DISCID=0a116913
DTITLE=Czerwone Gitary
DYEAR=1900
DGENRE=
TTITLE0=Jeszcze gra muzyka
TTITLE1=Juz nie jestem tym chlopcem
TTITLE2=Byle dzis, byle z nia
TTITLE3=Jest taki kraj na lakach snu
TTITLE4=Zawsze w tle
TTITLE5=Tanczyla jedno lato
TTITLE6=Epitafium dla Krzyska
TTITLE7=Strzemiennego
TTITLE8=Latawce z moich stron
TTITLE9=Wymarzona milosc
TTITLE10=Kochaj i trac
TTITLE11=Zanim powiesz do widzenia
TTITLE12=Jest taki kraj na lakach snu
TTITLE13=Bialy Krzyz (bonus - live)
TTITLE14=Trzy po trzy (bonus)
TTITLE15=Przypomnij czas (bonus)
TTITLE16=Morze wzywa (bonus)
TTITLE17=Statek widmo (bonus)
TTITLE18=Korona (instrument.) (bonus)
EXTD=
EXTT0=
EXTT1=
EXTT2=
EXTT3=
EXTT4=
EXTT5=
EXTT6=
EXTT7=
EXTT8=
EXTT9=
EXTT10=
EXTT11=
EXTT12=
EXTT13=
EXTT14=
EXTT15=
EXTT16=
EXTT17=
EXTT18=
PLAYORDER=
